<svg version="1.1" id="default-image-solid" xmlns="http://www.w3.org/2000/svg" x="0px" y="0px" viewBox="0 0 400 265" style="width: 400px; height: 265px;">
<rect fill="#C6D8E1" width="400" height="265"/>
<path fill="#D9E3E8" d="M395.3,96.2c-5-0.8-6.1,1.1-8.5,2.9c-1-2.3-2.6-6.2-7.7-5c1.5-5.3-2.6-8.4-7.7-8.4c-0.6,0-1.2,0.1-1.8,0.2
	c-1.8-4.1-6-6.9-10.7-6.9c-6.5,0-11.8,5.3-11.8,11.8c0,0.4,0,0.9,0.1,1.3c-1.2-0.8-2.5-1.3-3.9-1.3c-4.3,0-7.9,4.2-7.9,9.4
	c0,1.2,0.2,2.4,0.6,3.5c-0.5-0.1-1-0.1-1.6-0.1c-6.9,0-12.5,5.5-12.7,12.4c-0.9-0.2-1.9-0.4-2.9-0.4c-6.4,0-11.7,5.2-12.5,11.8
	c-1.2-0.4-2.5-0.6-3.9-0.6c-5.9,0-10.8,3.8-12.1,8.9c-2.4-2-5.5-3.2-8.9-3.2c-6,0-11.1,3.7-12.8,8.8c-1.5-1.4-3.8-2.3-6.3-2.3
	c-2.1,0-4.1,0.6-5.5,1.7h-0.1c-1.3-5.5-6.2-9.5-12.1-9.5c-2.4,0-4.7,0.7-6.6,1.9c-1.4-0.7-3-1.2-4.8-1.2c-0.3,0-0.5,0-0.8,0
	c-1.5-4.1-5.2-7-9.5-7c-3.1,0-5.9,1.5-7.8,3.9c-2.2-4.8-6.8-8.2-12.2-8.2c-5.6,0-10.5,3.7-12.5,8.8c-2.1-0.9-4.4-1.5-6.9-1.5
	c-6.8,0-12.5,3.9-14.5,9.3c-0.2,0-0.5,0-0.7,0c-5.2,0-9.6,3.2-11.4,7.8c-2.7-2.8-7-4.5-11.8-4.5c-3.3,0-6.4,0.9-8.9,2.3
	c-2.1-6.5-8-12.2-18.1-9.9c-2.7-2.3-6.3-3.7-10.1-3.7c-2.5,0-4.8,0.6-6.9,1.6c-2.2-5.9-7.9-10.1-14.6-10.1c-8.6,0-15.6,7-15.6,15.6
	c0,0.9,0.1,1.7,0.2,2.5c-2.6-5-7.8-8.4-13.8-8.4c-8.3,0-15.1,6.5-15.6,14.6c-2.9-3.2-7-5.3-11.7-5.3c-7.4,0-13.5,5.1-15.2,12
	c-2.9-3.5-9.8-6-14.7-6v119.2h400V102C400,102,400,97,395.3,96.2z"/>
<path fill="#8EA8BB" d="M400,206.2c0,0-25.3-19.2-33.6-25.7c-13.4-10.6-23.1-12.9-31.7-7s-23.9,19.7-23.9,19.7s-58.9-63.9-61.5-66.4
	c-1.5-1.4-3.6-1.7-5.5-0.9c-5.2,2.4-17.6,9.7-24.5,12.7c-6.9,2.9-41-50.7-49.6-53s-84.3,83.3-101.4,75.1s-26.9-2.3-35.4,3.5
	c-8.6,5.9-11,5.9-15.9,8.2s-17.1-5.9-17.1-5.9V265c0,0,400,0.2,400,0v-58.8H400z"/>
<path fill="#7E96A6" d="M333.4,179c-13.1-9.3-40,4.6-55.1,10.7c-23.6,9.6-94-54.4-107.2-59.7c0,0-4.2,3.7-9.6,7.6
	c-3.5-0.4-8.4-5.7-9.9-4.7c-4.6,3.1-17.8,15.4-28.3,26.6c-10.5,11.3-11.7,0-15.8-0.6c-2.5-0.4-54.1,42.5-58.7,43.1
	C22.3,205.3,0,197.5,0,197.5V265l400-0.1v-53.3C400,211.6,344.8,187.1,333.4,179z"/>
<path fill="#788F9E" d="M0,264.9v-58.6c0,0,8.2,1.8,11.3,5.3c3.1,3.6,26.1-4.2,26.1,4.7s0.5,4.2,0.5,14.8c0,10.7,23-4.2,38.1-18.4
	s34.9-49.2,36-35c1,14.2-15.1,39.2-24,56.4C79.1,251.4,51.7,265,51.7,265L0,264.9z"/>
<path fill="#788F9E" d="M100,265c0,0,66.7-125.1,68.3-116.8s-6.8,29.7,2.1,26.1c8.9-3.6,14.6-16,18.8-9.5s16.2,38.6,21.9,33.8
	c5.7-4.7,21.4-13.1,22.4-6.5c1,6.5-1,5.3-5.7,20.2C223.1,227.1,200,265,200,265h-10c0,0,6-24.8,8.6-34.9c2.6-10.1-3.7-19-12-8.3
	s-23,22-24,17.8s-5.7-30.3-18.8-14.2c-13,16-33.8,39.7-33.8,39.7h-10V265z"/>
<path fill="#788F9E" d="M245,265c0,0,19.8-54.7,33.4-64.2s53.7-27.9,46.9-13.6c-6.8,14.2-11,34.4-20.3,49.8
	c-9.4,15.4-18.8,26.1-14.1,13.6c4.7-12.5,6.4-23.3,3.7-23.1C271.3,229.1,260,265,260,265H245z"/>
</svg>
