<?xml version="1.0" standalone="no"?>
<!DOCTYPE svg PUBLIC "-//W3C//DTD SVG 20010904//EN"
 "http://www.w3.org/TR/2001/REC-SVG-20010904/DTD/svg10.dtd">
<svg version="1.0" xmlns="http://www.w3.org/2000/svg"
 width="132.000000pt" height="103.000000pt" viewBox="0 0 132.000000 103.000000"
 preserveAspectRatio="xMidYMid meet">
<metadata>
Created by potrace 1.16, written by Peter Selinger 2001-2019
</metadata>
<g transform="translate(0.000000,103.000000) scale(0.100000,-0.100000)"
fill="#000000" stroke="none">
<path d="M90 795 c0 -20 36 -55 55 -55 22 0 23 -4 27 -89 3 -87 4 -91 38 -126
44 -45 98 -62 151 -48 l39 10 0 -71 c0 -40 5 -77 11 -83 7 -7 1 -12 -20 -16
-22 -5 -31 -12 -31 -26 0 -28 10 -31 57 -18 32 8 45 8 57 -2 42 -35 -5 -101
-73 -101 -57 0 -99 16 -157 60 -29 22 -55 36 -58 31 -8 -12 74 -85 124 -111
53 -27 136 -36 170 -18 57 31 62 106 9 155 l-29 28 0 212 0 213 59 0 59 0 4
-94 c3 -89 5 -97 33 -127 58 -62 124 -74 191 -35 40 23 41 23 75 5 38 -21 76
-24 113 -9 l26 10 0 -68 c0 -63 2 -71 30 -97 l30 -29 0 222 0 222 45 0 46 0
-16 30 -16 30 -524 0 c-289 0 -525 -2 -525 -5z m308 -147 l-3 -92 -34 -23
c-19 -13 -49 -23 -67 -23 -51 0 -64 27 -64 137 l0 93 85 0 86 0 -3 -92z m622
-2 c0 -90 -1 -94 -26 -111 -40 -26 -97 -31 -117 -10 -14 13 -17 36 -17 116 l0
99 80 0 80 0 0 -94z m-303 -18 c80 -98 78 -95 44 -113 -44 -22 -87 -19 -105 7
-17 24 -23 178 -7 178 4 0 35 -33 68 -72z"/>
</g>
</svg>
