<?xml version="1.0" standalone="no"?>
<!DOCTYPE svg PUBLIC "-//W3C//DTD SVG 20010904//EN"
 "http://www.w3.org/TR/2001/REC-SVG-20010904/DTD/svg10.dtd">
<svg version="1.0" xmlns="http://www.w3.org/2000/svg"
 width="275.000000pt" height="293.000000pt" viewBox="0 0 275.000000 293.000000"
 preserveAspectRatio="xMidYMid meet">
<metadata>
Created by potrace 1.16, written by Peter Selinger 2001-2019
</metadata>
<g transform="translate(0.000000,293.000000) scale(0.100000,-0.100000)"
fill="#000000" stroke="none">
<path d="M880 1860 l0 -30 70 0 71 0 -3 -92 -3 -93 -37 -3 c-34 -3 -38 -6 -38
-31 0 -33 39 -88 80 -114 54 -34 60 -18 60 169 l0 164 90 0 90 0 0 -248 0
-248 -35 -13 c-68 -24 -97 -105 -59 -160 29 -41 108 -62 172 -45 18 5 22 13
20 33 -3 25 -5 26 -60 23 -46 -3 -60 0 -77 17 -37 37 -3 81 61 81 l38 0 0 280
0 280 205 0 205 0 0 -40 0 -40 -106 0 c-100 0 -139 -8 -156 -34 -13 -19 -9
-90 7 -120 13 -25 13 -33 0 -73 -18 -53 -18 -64 -3 -115 17 -58 78 -120 157
-162 67 -35 70 -36 80 -17 17 31 14 36 -33 58 -54 27 -112 77 -132 114 -22 44
-18 102 10 128 43 40 136 41 176 1 28 -28 25 -48 -15 -86 -32 -30 -34 -35 -24
-58 l12 -26 38 22 c39 22 69 69 69 107 0 40 -28 89 -59 106 -45 23 -113 29
-167 16 -54 -14 -64 -7 -64 45 0 20 6 34 16 38 9 3 69 6 135 6 l119 0 0 65 0
65 45 0 c43 0 45 1 45 30 l0 30 -500 0 -500 0 0 -30z"/>
</g>
</svg>
