<svg xmlns="http://www.w3.org/2000/svg" viewBox="0 0 300 300"><defs><style>.a,.b,.c,.d,.e,.g,.h,.j,.k,.l{fill-rule:evenodd;}.b{fill:#78e8fd;}.c{fill:#37a4b9;}.d{fill:#e88d95;}.e{fill:#a92cff;}.f,.i,.m{fill:none;stroke-linecap:round;stroke-linejoin:round;}.f{stroke:#642590;}.f,.i{stroke-width:1.989px;}.g{fill:#c89457;}.h{fill:#caf9f8;}.i{stroke:#afafaf;}.j{fill:#c52400;}.k{fill:#616161;}.l{fill:#8b8b8b;}.m{stroke:#1a1a1a;stroke-width:1.587px;}</style></defs><title>Reading_1</title><path class="a" d="M116.777,55.111c-4.265.6-10.062-.814-13.249-5.735A20.785,20.785,0,0,1,100.271,33.8c1.085-5.059,3.94-6.395,5.5-7.183a6.066,6.066,0,0,1,3.244-.54,21.557,21.557,0,0,1,1.409-7.57c1.46-3.417,4.989-7.046,9.7-9.234s9.655-3.83,13.154-4.159a41.424,41.424,0,0,1,10.5.641c3.345.557,6.723,3.471,8.41,5.736s2.779,1,4.645,3.121a15.074,15.074,0,0,1,4.138,8c1.012,4.4-.406,6.11-.406,6.11s-39.519,25.794-43.787,26.39Z"/><path class="b" d="M146.573,80.041a68.859,68.859,0,0,0-17.491,4.407c-5.625,2.467-11.427,7.772-16.03,13.313s-9.623,14.725-13.54,21.52-7.188,18.765-5.25,23.26a16.725,16.725,0,0,0,12.328,9.809c6.462,1.416,11.182-9.656,15.6-15.154s15.547-13.215,21.8-16.361,21.064-9.245,29.029-8.6,22.262,6.6,26.878,10.627,11.634,10.395,15.075,7.36,3.657-12.268,1.832-18.509-8.122-15.17-13.039-19.244S191.538,83.425,183.8,80.7s-12.044-3.841-16.308-3.715l-7.323.217s-9.366,2.352-13.591,2.843Z"/><path class="c" d="M130.376,135.492c-.5-9.854-1.276-25.143-1.276-25.143s-6.5,15.67-9.791,22.5,11.566,12.5,11.067,2.647Z"/><path class="c" d="M186.522,119.5c-.656-8.613-6.06-21.016-6.06-21.016l.469,16.059s6.248,13.568,5.591,4.957Z"/><path class="c" d="M141.162,122.69c-8.434,4.437-12.011,6.228-16.639,12.754s-7.788,13.781-4.027,17.03,26.742,7.931,33.61,6.22,13.437-5.193,20.645-13.39,18.667-19.082,19.593-22.291-1.391-5.492-7.014-6.892-21.2-3.68-26.357-1.987a124.724,124.724,0,0,0-19.811,8.556Z"/><path class="d" d="M116.647,54.885c1.853,3.98,7.134,12.228,10.253,15.412s7,6.268,10.358,7.163a24.543,24.543,0,0,0,6.009,1.175l2.874.022-.165,1.456s2.756,3.668,5.045,3.79,4,.049,5.666-1.073,3.747-5.64,3.747-5.64-.179-.981-.548-3l-.805-4.411a16.974,16.974,0,0,0,2.965-4.62,33.566,33.566,0,0,0,1.067-9.833,32.577,32.577,0,0,0-1.366-9.413l-1.6-5.869s2.58-2.135,3.168-4.308.295-5.646-1.8-7.537-5.935.708-5.935.708-1.5-2.226-2.333-3.43l-1.985-2.871a53.9,53.9,0,0,1-5.74,7.146c-2.544,2.4-7.211,6.594-11.885,8.322a46.906,46.906,0,0,1-10.773,2.635,22.779,22.779,0,0,1-6.323-.232s.421,1.45-.94,4-2.186,4.087-2.186,4.087,1.773,3.18,3.234,6.319Z"/><path class="e" d="M122.532,116.406c-.807-1.492-1.825-2.018.168-4.938s3.157-5.655,5.887-7.535,5.676-3.853,9.55-3.757a28.64,28.64,0,0,1,7.786.991,5.815,5.815,0,0,1,2.793,1.616,15.274,15.274,0,0,1,2.572-4.63,13.78,13.78,0,0,1,5.4-4.3A24.57,24.57,0,0,1,165,91.71a12.878,12.878,0,0,1,7.3,1.526c2.31,1.322,2.176,1.426,2.289,3.529a81.451,81.451,0,0,0,1.708,9.354l3.821,16.241c.331,1.413.646,5.08-.217,5.146s-2.79-1.034-4.631-1.248-5.628-.448-7.766.872-3.951,1.641-5.243,3.243-1.747,3.136-2.925,3.628c-1.078.45-2.912.069-5.287-.91s-6.595-.874-9.514,0-4.6,1.595-6.4,3.2l-3.847,3.448s-2.413-7-4.047-8.841-3.316-7.243-4.276-8.542a68.482,68.482,0,0,1-3.435-5.954Z"/><path class="f" d="M149.222,105.749c1.438,2.938,2.854,9.207,3.489,11.477,1.3,4.644,2.328,8.311,3.487,12.451"/><path class="d" d="M99.512,150.945c-3.1-2.129-3.6-4.855-2.448-8.184s5.887-6.976,10.444-8.827,8.9-3.614,12.011-4.876,5.972-1.924,8.347-2.747l4.721-1.639s-.089-2.563.069-4.31.173-2.761,1.3-2.975,2.1,2.182,2.1,2.182a16.129,16.129,0,0,0,2.074-2.511c.823-1.3,2.473-3.524,4.057-3.524s3.012.212,3.365,1.189a10.921,10.921,0,0,1,.032,3.43s2.32,3.345,2.249,4.49a6.53,6.53,0,0,1-2.051,3.758c-1.03.9-3.059,3.289-4.039,3.54a6.383,6.383,0,0,1-2.869-.258,6.039,6.039,0,0,0-2.119.189,74.812,74.812,0,0,0-5.405,6.423c-1.114,1.8-5.216,5.729-7.416,7.547s-7.62,6.345-10.889,7.489-9.407,2.455-13.54-.386Z"/><path class="d" d="M220.337,129.068c.338,2.94.145,8.031-3.021,10.087s-8.161,2.381-12.622-.239-7.414-13.027-10.6-15.29l-11.528-8.184s-3,.835-4.489,1.129-2.828-.747-4.13-1.3-3.027-2.21-2.406-3.69-.7-1.765-2.012-2.756-1.517-2.448.543-3.607a9.728,9.728,0,0,1,4.577-1.274c1.326-.16,2.975,1.242,4.536,2.635s3.308,2.956,3.308,2.956a81.3,81.3,0,0,1,9.434,1.4,59.638,59.638,0,0,1,12.231,3.782,82.5,82.5,0,0,1,11.019,5.954,12.3,12.3,0,0,1,5.163,8.391Z"/><path class="g" d="M35.149,204.5c.084-8.844,5.349-12.446,13.22-12.975s20.838-1.4,31.1-2.091,30.932-1.046,38.123-.911,78.318-3.491,96.924-4.17,29.268-1.071,38.309-1.4,12.917-1.924,13.009,2.211-2.94,4.948-5.807,5.46-6.4,21.914-2.09,21.781,9,.066,9.1,4-4.974,4.5-10.075,4.463-24.818.073-37.712.545c-12.94.477-49.7,1.641-69.828,2.494s-44.127,2.834-71.053,3.009c-21.657.14-28.3.984-32.7.213s-10.371-5.284-10.606-9.815.064-10.049.09-12.809Z"/><path class="h" d="M43.107,210.775c.076-3.634.092-6.434,1.676-8.415s6.335-3,13.951-2.894,32.753-2.8,47.16-3.186l86.536-2.329c18.606-.5,67.4-3.265,67.4-3.265l-1.5,21.706a218.385,218.385,0,0,1-30.744,1.46c-16.553-.428-47.869-.06-67.857.965-24.212,1.239-65.45,2.8-77.6,3.427l-31.3,1.6c-5.119.262-7.889-.966-7.717-9.074Z"/><path class="i" d="M61.079,205.481c4.308-2.03,15.6-.7,20.2-.707,10.459-.021,62.762-2.327,75.462-3.182,21.445-1.442,34.784-1.853,56.249-1.954,10.9-.051,21.811-1.524,32.7-1.934M58.564,213.29l22.719-.046c10.459-.02,62.762-2.326,75.462-3.181,21.445-1.444,34.784-1.853,56.249-1.956,10.9-.051,25.646-.964,36.539-1.373"/><path class="j" d="M241.205,233.927a15.036,15.036,0,0,0-4.205-10c-2.646-2.636-7.624-2.8-13.625-2.8-5.928,0-19.217.112-29.7.174s-36.3,1.888-44.495,2.4-61.194,2.187-76.239,2.725-31.5,1.128-34.949,1.25-5.05.89-5.025,3.68,1.659,5.487,5.952,5.365l8.31-.239,1.781,26.214s-5.009.25-8.319.66-5.85,1.443-5.772,4.484,1.554,5.051,7.919,4.6,20.394-.175,38.693-1.154,73.377-.851,91.632-1.49,44.419-1.554,52.088-1.821,10.579.04,13.121-3.632,2.723-8.908,3.01-14.689a146.735,146.735,0,0,0-.175-15.721Z"/><path class="h" d="M40.5,236.672l.7,26.626s12.2-.418,21.472-.588,21.86-.837,34.979-.639,46.212-.159,59.316-.481c13.718-.336,30.544-1.319,44.886-1.1,13.928.211,21.645-.393,24.482-.444s6.829-2.986,6.926-7.875.246-12.448.306-15.522a7.444,7.444,0,0,0-7.186-7.579c-4.959-.143-14.191.3-26.673,1.313s-40.748,1.418-55.081,2.168-46.565.9-60.486,1.439S40.5,236.672,40.5,236.672Z"/><path class="i" d="M47.162,244.085c6.4-.216,15.606-.678,20.2-.681,10.46-.009,62.766-2.25,75.465-3.089,21.448-1.418,34.789-1.811,56.253-1.887,10.9-.037,10.485-.38,21.377-.777m-171.938,17.9c6.4-.216,14.239-.011,18.839-.014,10.461-.007,62.766-2.248,75.466-3.087,21.448-1.418,22.278-1.451,43.742-1.528,10.9-.037,20.479-.745,31.373-1.141"/><path class="k" d="M119.985,141.442c4.391.961,18.2,3.857,20.448,4.475a18.976,18.976,0,0,0,6.742.964l8.641-.531a7.429,7.429,0,0,0,5.854-2.724c1.553-2.018,6.546-5.991,9.838-9.568s6.591-7.161,9.7-10.535,8.527-4.927,11.614-5.053-3.174,47.721-3.174,47.721L171.11,186.232l-40.867,2.041s-14.651-47.792-10.258-46.831Z"/><path class="l" d="M111.441,141c-6.111.848-9.343,7.581-10.6,13.742s-3.462,21.149-1.331,33.649a249.764,249.764,0,0,0,8.708,33.568c2.363,7.078,5.865,17.564,7.842,23.482s5.48,21.727,5.48,21.727l14.236-1.843s.945-19.569.957-28.9.041-30.645.05-37.746,1.352-18.055,1.352-23.14-.991-17.669-6.483-25.638c-4.05-5.876-10.508-10.246-20.213-8.9Z"/><path class="l" d="M201.9,120.307c4.535,3.291,10.117,8.406,10.372,17s-4.317,21.648-8.2,29.866-12.247,25.886-16.334,34.525-9.2,18.241-11.614,22.375l-5.211,8.912-10.685-5.635s.547-11.411,1.774-23.388,2.249-21.964,3.424-33.435,3.422-18.728,5.843-26.482,9.689-17.584,13.2-21.689c3.642-4.249,12.77-5.433,17.43-2.053Z"/><path class="a" d="M126.394,53.4a5.348,5.348,0,0,0,.407,1.862,5.157,5.157,0,0,0,.612.842c.765.812,2.833,1.526,3.275-.018.368-1.29-.775-2.915-1.566-3.96a1.776,1.776,0,0,0-1.847-.456c-.455.211-.8,1.132-.881,1.73Z"/><path class="a" d="M138.351,45.715a1.863,1.863,0,0,0,.038,2.2l.7,1.392a11.533,11.533,0,0,0,.6,1.117,1.5,1.5,0,0,0,2.526-.276,3.722,3.722,0,0,0-.4-3.381,3.762,3.762,0,0,0-.979-1.318,1.967,1.967,0,0,0-2.484.263Z"/><path class="m" d="M137.615,58.582a11.168,11.168,0,0,0,.184,1.6c.151.814.335,1.633.535,2.435a2.668,2.668,0,0,0,.278.919c.088.118.341.127.469.191a2.215,2.215,0,0,0,1.709.087c.071-.023.555-.209.555-.3m4.631,5.662a9.542,9.542,0,0,0,2.958-1.983c1.89-2.111,2.034-3.251,2.087-4.171"/><path class="a" d="M159.52,232.855a12.921,12.921,0,0,0-5.354,4.226c-1.069,1.455-1.016,2.675.028,5.694a55.269,55.269,0,0,0,4.441,10.82c2.338,4.007,3.885,6.2,5.777,6.765s2.947-1.8,2.687-4.956-.575-12.461-1.007-14.962-4.613-8.189-6.572-7.587Z"/><path class="d" d="M161.655,227.784c-.684,1.681-.832,4.2-2.209,5.444s-.92,3,.775,5.227,3.4,6.051,5.12,5.715.347-6.059.2-6.765,2.986-6.182,2.986-6.182-6.193-5.121-6.874-3.439Z"/><path class="a" d="M126.024,277.049c-1.3,1.444-2.917,4.444-4.682,7.251s-2.963,5.805-2.963,7.722,1.075,3.9,3.163,2.514a68.83,68.83,0,0,0,9.316-8.379c2.407-2.7,5.492-5.369,6.385-7.149a8.649,8.649,0,0,0,.4-6.452c-.786-1.674-3.4-2.338-3.4-2.338s-6.921,5.386-8.218,6.831Z"/><path class="d" d="M124.792,265.866a30.08,30.08,0,0,1,2.342,6.724c.217,1.591-.574,3.494-1.682,5.731s-1.979,4.262-.193,4.117,3.158-1.29,4.984-3.82a39.348,39.348,0,0,0,3.9-6.051c.427-1.135-.556-2.733-1.313-4.381a11.407,11.407,0,0,1-.756-4s-8.508-1.147-7.278,1.678Z"/></svg>